<?xml version="1.0" encoding="UTF-8" standalone="no"?>
<!-- Created with Inkscape (http://www.inkscape.org/) -->

<svg
   width="114.59285mm"
   height="226.19926mm"
   viewBox="0 0 114.59285 226.19926"
   version="1.1"
   id="svg5"
   xml:space="preserve"
   xmlns="http://www.w3.org/2000/svg"
   xmlns:svg="http://www.w3.org/2000/svg"><defs
     id="defs2" /><g
     id="layer2"
     transform="matrix(3.0851615,0,0,6.6396488,-163.46824,-537.84233)"><polygon
       points="149.755,339.843 197.94,256.384 101.569,256.384 "
       id="polygon186-0"
       transform="matrix(0.38597674,0,0,0.34836331,13.76729,-3.3162421)"
       style="fill:#000000;fill-opacity:1;stroke:none;stroke-opacity:1" /></g><g
     id="layer1"
     transform="translate(-52.892763,-53.1507)"><g
       id="g236"
       transform="matrix(0.38260199,0,0,0.38260199,52.892825,53.150716)"><g
         fill="#d8aa2f"
         stroke="#000000"
         stroke-width="6"
         id="g196"><polygon
           points="246.126,172.921 294.312,89.461 197.94,89.461 "
           id="polygon182" /><polygon
           points="101.569,89.46 5.196,89.46 53.383,172.922 "
           id="polygon184" /><polygon
           points="149.755,339.843 197.94,256.384 101.569,256.384 "
           id="polygon186" /><polygon
           points="53.383,172.922 5.196,256.384 101.569,256.384 "
           id="polygon188" /><polygon
           points="197.94,89.461 149.755,6 101.569,89.46 "
           id="polygon190" /><polygon
           points="197.94,256.384 294.313,256.384 246.126,172.921 "
           id="polygon192" /><polygon
           points="197.94,256.384 246.126,172.921 197.94,89.461 101.569,89.46 53.383,172.922 101.569,256.384 "
           id="polygon194" /></g><path
         stroke="#000000"
         d="m 96.286,119.292 c -2.921,0.358 -4.877,2.609 -4.424,8.05 0.5,6 0.25,10.999 4,12.749 3.75,1.75 8.5,1.25 11.5,6.75 3,5.5 5.5,10 3.75,20.5 -1.75,10.5 -4.5,22 -12,22.75 -7.5,0.75 -9.5,-4.5 -9.5,-4.5 2.578,6.768 -4.828,19.998 6.751,20 6.74,-0.002 11.361,-7.314 13.673,-12.766 3.313,-7.811 3.041,-16.839 4.104,-25.161 0.696,-5.444 1.369,-10.891 2.029,-16.339 0.403,-3.333 1.352,-7.089 1.054,-10.444 -0.411,-4.622 -1.359,-8.797 -4.111,-12.54 -3.003,-4.084 -11.511,-9.7 -16.826,-9.049 z"
         id="path198" /><path
         stroke="#000000"
         d="m 122.062,147.618 c -2.712,2.299 -4.024,8.418 -2.192,11.602 1.128,1.958 4.051,2.749 4.83,4.858 1.292,3.501 -1.331,9.39 -2.097,12.845 -1.035,4.664 -1.729,9.396 -2.794,14.055 -0.808,3.536 -0.246,9.014 3.804,10.364 3.588,1.194 9.502,0.376 13.128,-0.344 2.144,-0.425 4.5,-1.595 6.729,-1.226 2.46,0.408 3.438,2.615 5.627,3.56 -0.982,-1.962 0.012,-4.676 0.152,-6.78 0.084,-1.277 0.475,-2.905 0.26,-4.171 -0.423,-2.487 -1.396,-4.496 -1.354,-7.119 0.023,-1.364 0.619,-2.931 0.901,-4.267 1.102,-5.218 2.203,-10.436 3.305,-15.654 1.25,-3.216 2.975,-8.121 1.045,-11.458 -1.958,-3.393 -5.734,-2.271 -8.795,-3.292 -1.5,-0.5 -1.5,-4 -1.5,-4 0,0 -4,4 -3.75,8.25 0.15,2.562 0.448,6.234 2.751,7.813 1.984,1.36 3.729,1.386 4.485,3.847 0.649,2.112 -0.065,4.899 -0.292,7.036 -0.115,1.088 -2.617,13.529 -3.195,13.555 -0.165,0.008 -16.999,0.75 -16.999,0.75 0,0 4.245,-22.977 4.25,-23 0.388,-2.1 2.473,-3.819 2.713,-6.237 0.282,-2.85 -1.038,-6.075 -3.963,-7.019 -0.301,-0.098 -10.138,-1.321 -7.049,-3.968 z"
         id="path200" /><g
         id="g210"><g
           id="g204"><path
             d="m 186.042,174.536 c 0.861,-3.794 1.99,-7.444 2.205,-11.328 0.326,-5.926 0.396,-11.688 -2.453,-17.105 -1.074,-2.042 -2.1,-3.939 -4.182,-5.262 -4.854,-3.083 -13.859,-3.821 -15.75,-10.25 -0.568,-1.929 -2.465,-9.229 -0.795,-10.724 -0.242,0.217 -0.482,0.45 -0.719,0.697 -1.539,1.599 -2.971,3.745 -4.305,5.478 -2.635,3.424 -3.691,7.441 -2.834,11.688 0.811,4.017 4.064,5.51 7.141,7.709 2.768,1.979 6.365,3.999 3.564,7.709 -1.898,2.514 -3.496,5.321 -5.234,7.95 -6.32,9.565 -12.091,27.728 -2.994,37.542 5.262,5.675 13.059,0.1 19.176,2.451 3.244,1.248 5.244,3.992 5.25,4 -0.695,-0.953 1.998,-7.877 2.299,-9.099 0.59,-2.386 1.27,-4.359 -0.412,-6.508 -2.205,-2.821 -2.916,-2.841 -1.926,-6.567 0.735,-2.771 1.334,-5.587 1.969,-8.381 z m -3.875,-0.195 c -0.414,3.688 -1.836,11.131 -5.832,12.178 -3.365,0.881 -9.049,-0.049 -11.457,-2.746 -2.465,-2.762 -3.104,-7.273 -3.404,-10.75 -0.283,-3.254 1.361,-6.986 2.828,-9.856 0.039,-0.077 0.078,-0.152 0.117,-0.228 0.553,-1.071 7.227,-11.915 6.938,-12.253 4.035,4.72 7.594,7.56 9.25,13.656 0.917,3.377 1.96,6.442 1.56,9.999 z"
             id="path202" /></g><g
           id="g208"><path
             fill="none"
             stroke="#000000"
             d="m 186.042,174.536 c 0.861,-3.794 1.99,-7.444 2.205,-11.328 0.326,-5.926 0.396,-11.688 -2.453,-17.105 -1.074,-2.042 -2.1,-3.939 -4.182,-5.262 -4.854,-3.083 -13.859,-3.821 -15.75,-10.25 -0.568,-1.929 -2.465,-9.229 -0.795,-10.724 -0.242,0.217 -0.482,0.45 -0.719,0.697 -1.539,1.599 -2.971,3.745 -4.305,5.478 -2.635,3.424 -3.691,7.441 -2.834,11.688 0.811,4.017 4.064,5.51 7.141,7.709 2.768,1.979 6.365,3.999 3.564,7.709 -1.898,2.514 -3.496,5.321 -5.234,7.95 -6.32,9.565 -12.091,27.728 -2.994,37.542 5.262,5.675 13.059,0.1 19.176,2.451 3.244,1.248 5.244,3.992 5.25,4 -0.695,-0.953 1.998,-7.877 2.299,-9.099 0.59,-2.386 1.27,-4.359 -0.412,-6.508 -2.205,-2.821 -2.916,-2.841 -1.926,-6.567 0.735,-2.771 1.334,-5.587 1.969,-8.381 z m -3.875,-0.195 c -0.414,3.688 -1.836,11.131 -5.832,12.178 -3.365,0.881 -9.049,-0.049 -11.457,-2.746 -2.465,-2.762 -3.104,-7.273 -3.404,-10.75 -0.283,-3.254 1.361,-6.986 2.828,-9.856 0.039,-0.077 0.078,-0.152 0.117,-0.228 0.553,-1.071 7.227,-11.915 6.938,-12.253 4.035,4.72 7.594,7.56 9.25,13.656 0.917,3.377 1.96,6.442 1.56,9.999 z"
             id="path206" /></g></g><path
         stroke="#000000"
         d="m 222.829,192.827 c 0.426,1.492 0.537,3.221 0.363,5.04 -0.201,2.091 -0.186,4.097 -1.309,5.984 -0.652,1.092 -3.297,2.718 -3.475,3.622 1.402,-7.129 -11.826,-3.07 -15.545,-5.131 -5.158,-2.858 -7.354,-10.543 -7.752,-16.002 -0.744,-10.172 0.973,-23.792 0.998,-23.997 0.559,-4.407 5.096,-9.122 9.264,-10.239 3.615,-0.968 8.277,-1.875 11.893,-0.397 3.107,1.271 5.162,5.093 6.346,8.134 2.02,5.196 3.012,16.994 -3,20 -2.438,1.219 -6.955,-0.027 -9.479,-0.553 -1.137,-0.236 -2.146,-0.61 -3.297,-0.564 -0.809,0.033 -6.482,1.94 -6.176,3.09 -0.943,-3.547 -1.463,-7.394 0.951,-10.501 3.932,-5.063 18.082,2.009 17.5,-6.721 -0.25,-3.75 -7.25,-4.75 -12.25,-3.5 -4.438,1.109 -8.404,1.92 -9.586,6.742 -1.135,4.628 -0.168,9.109 0.336,13.758 0,0 0.25,4.5 3.75,5.5 3.5,1 12.25,1 12.25,1 4.624,-0.841 7.245,1.327 8.218,4.735 z"
         id="path212" /></g></g></svg>
