<?xml version="1.0" encoding="UTF-8" standalone="no"?>
<!-- Created with Inkscape (http://www.inkscape.org/) -->

<svg
   width="114.59285mm"
   height="226.19926mm"
   viewBox="0 0 114.59285 226.19926"
   version="1.1"
   id="svg5"
   xml:space="preserve"
   sodipodi:docname="jude3.svg"
   inkscape:export-filename="jude3.png"
   inkscape:export-xdpi="6.6496296"
   inkscape:export-ydpi="6.6496296"
   inkscape:version="1.2.2 (732a01da63, 2022-12-09)"
   xmlns:inkscape="http://www.inkscape.org/namespaces/inkscape"
   xmlns:sodipodi="http://sodipodi.sourceforge.net/DTD/sodipodi-0.dtd"
   xmlns="http://www.w3.org/2000/svg"
   xmlns:svg="http://www.w3.org/2000/svg"><sodipodi:namedview
     id="namedview24"
     pagecolor="#ffffff"
     bordercolor="#000000"
     borderopacity="0.25"
     inkscape:showpageshadow="2"
     inkscape:pageopacity="0.0"
     inkscape:pagecheckerboard="0"
     inkscape:deskcolor="#d1d1d1"
     inkscape:document-units="mm"
     showgrid="false"
     inkscape:zoom="0.9521288"
     inkscape:cx="63.016685"
     inkscape:cy="427.98832"
     inkscape:window-width="1920"
     inkscape:window-height="1001"
     inkscape:window-x="-9"
     inkscape:window-y="-9"
     inkscape:window-maximized="1"
     inkscape:current-layer="svg5" /><defs
     id="defs2" /><g
     id="layer2"
     transform="matrix(3.0851615,0,0,6.6396488,-163.46824,-537.84233)"><polygon
       points="149.755,339.843 197.94,256.384 101.569,256.384 "
       id="polygon186-0"
       transform="matrix(0.38597674,0,0,0.34836331,13.76729,-3.3162421)"
       style="fill:#4d4d4d;fill-opacity:1;stroke:none;stroke-opacity:1" /></g><g
     id="layer1"
     transform="translate(-52.892763,-53.1507)"><g
       id="g236"
       transform="matrix(0.38260199,0,0,0.38260199,52.892825,53.150716)"><g
         fill="#d8aa2f"
         stroke="#000000"
         stroke-width="6"
         id="g196"><polygon
           points="246.126,172.921 294.312,89.461 197.94,89.461 "
           id="polygon182" /><polygon
           points="101.569,89.46 5.196,89.46 53.383,172.922 "
           id="polygon184" /><polygon
           points="149.755,339.843 197.94,256.384 101.569,256.384 "
           id="polygon186" /><polygon
           points="53.383,172.922 5.196,256.384 101.569,256.384 "
           id="polygon188" /><polygon
           points="197.94,89.461 149.755,6 101.569,89.46 "
           id="polygon190" /><polygon
           points="197.94,256.384 294.313,256.384 246.126,172.921 "
           id="polygon192" /><polygon
           points="197.94,256.384 246.126,172.921 197.94,89.461 101.569,89.46 53.383,172.922 101.569,256.384 "
           id="polygon194" /></g><g
         id="g210"><g
           id="g204" /><g
           id="g208" /></g></g></g></svg>
