<?xml version="1.0" encoding="UTF-8" standalone="no"?>
<svg
   width="237.161"
   height="67.143997"
   viewBox="0 0 237.161 67.143997"
   fill="none"
   version="1.1"
   id="svg19"
   xmlns="http://www.w3.org/2000/svg"
   xmlns:svg="http://www.w3.org/2000/svg">
  <g
     clip-path="url(#clip0)"
     id="g10"
     transform="translate(0,-4)">
    <path
       d="m 39.126,61.8254 c 0.2045,-0.7371 0.3408,-1.4071 0.4771,-2.1442 0.2727,-0.9381 0.4772,-1.9431 0.7498,-2.8812 0.0682,-0.134 0.0682,-0.335 0.0682,-0.469 -0.0682,-0.8711 -0.2045,-1.7422 -0.409,-2.6132 -0.0681,-0.134 -0.0681,-0.3351 -0.1363,-0.4691 -0.2727,-0.469 -0.4771,-0.938 -0.7498,-1.4741 -0.4771,-0.804 -0.8861,-1.6081 -1.4314,-2.4122 -1.0225,-1.4741 -2.0449,-2.9482 -2.8629,-4.5563 -0.0682,-0.067 -0.1363,-0.201 -0.2045,-0.268 -0.0682,0 -0.0682,0 -0.0682,0.067 -5.6575,5.0924 -11.3833,10.1847 -17.0409,15.2771 l -0.0681,0.067 c 0,0 -0.0682,0 -0.0682,0.067 l -0.0682,0.067 c 0,0 0,0 -0.0681,0 0,0 0,0 -0.0682,0 1.7041,-12.3289 3.4764,-24.6578 5.1805,-36.9868 0,-0.134 0.0681,-0.335 0.0681,-0.469 0,0 0,0 0.0682,0 0.9543,5.2934 1.9086,10.5868 2.931,15.9472 0.3408,-1.7421 0.6135,-3.4842 0.8861,-5.1594 0.2727,-1.7421 0.5453,-3.4842 0.818,-5.1594 0.2727,-1.7421 0.5453,-3.4842 0.818,-5.1594 0.2726,-1.7421 0.5453,-3.4172 0.8179,-5.1593 0.0682,0 0.0682,0 0.1364,0 0.8861,5.0923 1.8404,10.1847 2.7265,15.2771 0.0682,-0.134 0.1363,-0.268 0.1363,-0.402 0.2045,-1.4741 0.4772,-2.9482 0.6817,-4.3553 0.4089,-2.4792 0.8179,-5.0254 1.2269,-7.5046 0.0682,-0.6031 0.2045,-1.2061 0.2727,-1.8092 -0.0682,-0.067 -0.1364,-0.067 -0.2045,-0.134 -0.6817,-0.603 -1.2951,-1.2061 -1.9086,-1.7421 -0.5453,-0.469 -1.1588,-0.9381 -1.7723,-1.4071 -0.3408,-0.268 -0.6134,-0.603 -0.7498,-1.0721 -0.2726,-0.737 -0.5453,-1.5411 -0.7498,-2.2782 -0.0681,-0.268 -0.2045,-0.536 -0.3408,-0.804 C 27.879,11.0355 27.6064,10.2985 27.1974,9.69543 26.8566,9.09239 26.5157,8.48934 26.1068,7.9533 25.2888,6.74721 24.4708,5.54112 23.6529,4.33503 c 0,0 0,-0.06701 -0.0682,-0.06701 C 20.7218,4 17.7226,4 14.7916,4 c 0.3408,0.53604 0.6816,1.13909 1.0224,1.67513 0.6135,1.00507 1.227,2.01015 1.8405,3.01523 0.2045,0.33502 0.4089,0.60304 0.6816,0.87106 1.0906,1.47408 1.3633,3.08228 0.8861,4.82438 -0.409,1.5411 -1.2269,2.8812 -2.3175,4.0873 -1.2951,1.4071 -2.7947,2.4792 -4.4307,3.4843 -1.3632,0.871 -2.72651,1.6751 -4.08978,2.4121 -1.09062,0.6031 -2.11307,1.2731 -2.9992,2.0772 -0.95429,0.8041 -1.84042,1.7421 -2.65838,2.7472 -0.54531,0.6701 -1.02245,1.3401 -1.43144,2.0772 -0.408977,0.804 -0.545304,1.6081 -0.817958,2.4792 -0.272655,0.871 -0.340818,1.8091 -0.4771452954,2.7472 0,0.067 -0.0681636046,0.134 -0.1363267046,0.268 0,0.603 0,1.2061 0,1.8761 0.0681631,0.067 0.0681631,0.201 0.1363267046,0.268 C 0.0682603,39.6467 0.136424,40.3838 0.272751,41.0538 c 0.204491,1.2061 0.545309,2.4122 1.090619,3.5513 0.68163,1.4741 1.63592,2.8142 2.59021,4.1543 1.02246,1.2731 2.04491,2.5462 3.13553,3.8193 1.43143,1.6751 3.06739,3.2162 4.83959,4.5563 0.8862,0.6701 1.8404,1.4071 2.7947,2.0772 1.227,0.871 2.5221,1.6751 3.8854,2.4122 1.4996,0.871 2.931,1.7421 4.2943,2.8142 1.1587,0.938 2.2494,1.9431 2.9992,3.2832 0.3408,0.6701 0.7498,1.3401 1.0906,1.9432 0.1363,0.268 0.3408,0.402 0.6816,0.402 2.6584,0 5.2486,0 7.907,0 0.1363,0 0.3408,0 0.4771,0 0.2045,-0.8041 0.4772,-1.6081 0.6817,-2.4122 0.1363,-0.536 0.2726,-1.0721 0.4771,-1.6081 0.4772,-1.0721 0.9543,-2.1442 1.4315,-3.2162 0.2726,-0.3351 0.4089,-0.6701 0.4771,-1.0051 z"
       fill="#efe6e0"
       id="path2" />
    <path
       d="m 36.8767,19.3442 c 0.0682,0.402 0.0682,0.737 0.0682,1.0051 0,0.201 0.1363,0.402 0.3408,0.536 0.409,0.268 0.818,0.536 1.2269,0.8041 0.0682,0.067 0.1364,0.067 0.2727,0.134 0.0682,-0.2681 0.0682,-0.4691 0.1363,-0.6701 0.0682,-0.201 0,-0.402 -0.2045,-0.536 -0.5453,-0.4021 -1.0906,-0.8041 -1.6359,-1.2061 -0.0682,0 -0.0682,0 -0.2045,-0.067 z"
       fill="#efe6e0"
       id="path4" />
    <path
       d="m 84.9318,35.8944 c 0,-1.6751 -0.6135,-3.0822 -1.5677,-4.4893 -0.8862,-1.2731 -1.9768,-2.4122 -3.0674,-3.4843 -1.4314,-1.2731 -2.9992,-2.4792 -4.567,-3.5513 -0.1363,-0.067 -0.2045,-0.134 -0.4089,-0.067 -1.3633,0.2011 -2.6584,0.3351 -4.0217,0.5361 -0.4771,0.067 -0.9543,0.067 -1.3633,0.067 -0.5453,0 -1.0906,0.067 -1.6359,0.067 -0.1363,0 -0.2727,0 -0.409,-0.067 -0.6135,-0.268 -1.2269,-0.5361 -1.8404,-0.8041 -1.0225,-0.402 -1.7723,-1.1391 -2.6584,-1.7421 -0.7498,-0.6031 -1.4314,-1.2061 -2.1812,-1.7421 -0.8861,-0.6701 -1.7723,-1.3401 -2.7266,-1.8762 -1.0906,-0.603 -2.0449,-1.4071 -2.931,-2.2112 -1.2951,-1.206 -2.5902,-2.3451 -3.8172,-3.5512 -0.8179,-0.7371 -1.4996,-1.4741 -2.0449,-2.4122 -0.2726,-0.536 -0.4771,-1.13909 -0.4089,-1.74213 0.1363,-1.40711 0.2044,-2.81422 0.3408,-4.22132 0,-0.13401 0.0681,-0.20102 0.0681,-0.40203 V 4 C 41.5116,4 33.332,4 25.1523,4 c 0.409,0.60305 0.818,1.20609 1.2952,1.74213 0.4771,0.60305 0.8179,1.2731 1.1587,1.94315 0.6817,1.2731 1.3633,2.54622 1.9768,3.81932 0.2726,0.536 0.4771,1.1391 0.6134,1.7421 0.1364,0.6701 0.409,1.1391 1.0225,1.5411 0.6816,0.4691 1.2951,1.0051 1.9086,1.5411 0.409,0.4021 0.8179,0.8041 1.2269,1.2061 0.3408,-1.8761 0.6135,-3.8193 0.9543,-5.6954 0,-0.134 0.0682,-0.201 0.0682,-0.335 h 0.0681 c 0.818,5.3604 1.636,10.6538 2.4539,16.0142 h 0.0682 c 1.3633,-7.0356 2.7265,-14.0711 4.0898,-21.03961 0.0682,0 0.0682,0 0.1363,0 0.5454,3.61831 1.1588,7.23651 1.7041,10.85481 0.5453,3.6183 1.1588,7.1696 1.7041,10.7878 h 0.0682 c 0.9543,-5.4944 1.9767,-11.0558 2.931,-16.5502 0.0682,0 0.0682,0 0.1363,0 0.2045,1.1391 0.3409,2.3452 0.4772,3.4842 0.2045,1.2061 0.3408,2.3452 0.4771,3.5513 0.1364,1.1391 0.3409,2.3452 0.4772,3.4843 0.1363,1.1391 0.3408,2.3451 0.4771,3.4842 0.1364,1.2061 0.3408,2.3452 0.4772,3.5513 0.1363,1.1391 0.3408,2.3452 0.5453,3.4843 1.0224,-4.8914 1.9086,-9.7158 2.8629,-14.6741 0.1363,0.268 0.7498,3.9533 1.2269,6.9015 0.3408,2.2782 0.6816,4.5563 1.0906,6.8345 0.3408,2.2782 0.6817,4.5563 1.0906,6.8345 0.0682,-0.134 0.0682,-0.268 0.1364,-0.402 0.2044,-1.2061 0.4089,-2.3452 0.6134,-3.5513 0.409,-2.2112 0.818,-4.4223 1.1588,-6.6335 0.2727,-1.5411 0.5453,-3.0822 0.818,-4.5563 0,-0.067 0.0681,-0.201 0.0681,-0.2681 h 0.0682 c 1.8404,12.53 3.6808,25.0599 5.4531,37.5229 0,0 0,0 -0.0682,0 -8.1796,-7.2366 -16.4274,-14.4731 -24.7434,-21.7097 -2.0449,1.6752 -4.0898,3.3503 -6.0665,5.0254 0.4771,0.6701 0.8861,1.2731 1.2951,1.9432 1.6359,2.4122 3.1355,4.8243 4.567,7.3035 0.0681,0.134 0.1363,0.335 0.2044,0.5361 0.1364,0.804 0.2727,1.5411 0.2727,2.3451 0,0.6701 -0.0682,1.3401 -0.2727,2.0102 -0.3408,1.0051 -0.6134,2.0772 -0.8861,3.0822 -0.2045,0.8041 -0.3408,1.5411 -0.6816,2.2782 -0.8861,2.0102 -1.6359,4.0203 -2.2494,6.1645 -0.0682,0.134 -0.0682,0.268 -0.1363,0.469 0.2044,0 0.3408,0 0.4771,0 5.9984,0 11.9286,0 17.927,0 0.0682,0 0.1364,0 0.2045,0 0.2045,0 0.3408,-0.067 0.409,-0.268 0.2727,-0.4691 0.5453,-0.8711 0.818,-1.3401 0.7498,-1.0721 1.704,-2.0102 2.7265,-2.8142 1.5678,-1.3401 3.34,-2.4792 5.0441,-3.6183 1.4314,-0.9381 2.8629,-1.8761 4.2262,-2.8812 1.6359,-1.1391 3.0673,-2.4122 4.4988,-3.7523 1.5677,-1.4741 3.0673,-3.0822 4.4987,-4.7574 1.0907,-1.3401 2.1813,-2.6802 3.1356,-4.1543 1.0906,-1.6751 1.9086,-3.4172 2.6584,-5.2264 0.3408,-0.804 0.6816,-1.6751 0.6816,-2.5462 0,-0.067 0.0682,-0.067 0.0682,-0.134 0,-0.804 0,-1.6081 0,-2.3452 0.1363,-0.201 0.0681,-0.268 0.0681,-0.335 z"
       fill="#efe6e0"
       id="path6" />
    <path
       d="M 68.3681,7.9533 C 69.0497,6.88122 69.6632,5.74213 70.3448,4.67005 70.4812,4.46904 70.5493,4.20102 70.6175,4 64.0738,4 57.5301,4 51.0545,4 v 0.13401 c -0.0681,0.46904 -0.1363,0.87107 -0.1363,1.2731 -0.1363,1.00507 -0.2726,1.94314 -0.409,2.94822 -0.0681,0.67005 0.0682,1.2731 0.409,1.87617 0.3408,0.67 0.818,1.2061 1.3633,1.7421 1.3633,1.2731 2.7265,2.5462 4.0898,3.7523 0.6135,0.536 1.1588,1.0721 1.7723,1.6081 0.2044,0.201 0.4771,0.335 0.6816,0.469 0.9543,0.5361 1.9086,1.1391 2.7947,1.8092 0.4771,0.335 0.8861,0.67 1.2951,1.0051 1.0225,0.804 2.1131,1.5411 3.2037,2.2781 0.409,0.2681 0.9543,0.4021 1.4314,0.6701 0.5453,0.268 1.1588,0.402 1.7723,0.335 1.4996,-0.201 3.0673,-0.335 4.5669,-0.469 0.0682,0 0.0682,0 0.1364,-0.067 -0.0682,-0.067 -0.1364,-0.134 -0.2045,-0.201 -1.227,-0.8041 -2.4539,-1.6752 -3.6127,-2.6803 -1.2951,-1.072 -2.4539,-2.2781 -3.2718,-3.8192 -0.9543,-1.7422 -1.0907,-3.4843 -0.409,-5.2934 0.4771,-1.2061 1.1588,-2.27821 1.8404,-3.4173 z"
       fill="#efe6e0"
       id="path8" />
  </g>
  <path
     d="M 117.754,13 V 4.612 l -3.276,6.246 h -1.386 L 109.816,4.612 V 13 h -2.484 V 0.22 h 2.664 l 3.78,7.272 3.816,-7.272 h 2.646 V 13 Z m 12.37,0.09 c -1.02,0 -1.89,-0.168 -2.61,-0.504 -0.708,-0.348 -1.284,-0.822 -1.728,-1.422 -0.432,-0.6 -0.75,-1.278 -0.954,-2.034 -0.204,-0.768 -0.306,-1.566 -0.306,-2.394 V 0.22 h 2.484 v 6.516 c 0,0.708 0.096,1.38 0.288,2.016 0.192,0.636 0.516,1.152 0.972,1.548 0.456,0.396 1.068,0.594 1.836,0.594 0.792,0 1.416,-0.198 1.872,-0.594 0.456,-0.408 0.78,-0.93 0.972,-1.566 0.192,-0.636 0.288,-1.302 0.288,-1.998 V 0.22 h 2.466 v 6.516 c 0,0.876 -0.108,1.698 -0.324,2.466 -0.204,0.768 -0.534,1.446 -0.99,2.034 -0.444,0.576 -1.02,1.032 -1.728,1.368 -0.708,0.324 -1.554,0.486 -2.538,0.486 z m 9.09,-1.962 7.128,-8.73 h -6.93 V 0.22 h 9.882 v 1.872 l -6.894,8.73 h 6.948 V 13 h -10.134 z m 22.751,-0.306 V 13 h -8.874 V 0.22 h 8.712 v 2.178 h -6.228 v 3.078 h 5.382 v 2.016 h -5.382 v 3.33 z m 9.155,2.268 c -1.02,0 -1.89,-0.168 -2.61,-0.504 -0.708,-0.348 -1.284,-0.822 -1.728,-1.422 -0.432,-0.6 -0.75,-1.278 -0.954,-2.034 -0.204,-0.768 -0.306,-1.566 -0.306,-2.394 V 0.22 h 2.484 v 6.516 c 0,0.708 0.096,1.38 0.288,2.016 0.192,0.636 0.516,1.152 0.972,1.548 0.456,0.396 1.068,0.594 1.836,0.594 0.792,0 1.416,-0.198 1.872,-0.594 0.456,-0.408 0.78,-0.93 0.972,-1.566 0.192,-0.636 0.288,-1.302 0.288,-1.998 V 0.22 h 2.466 v 6.516 c 0,0.876 -0.108,1.698 -0.324,2.466 -0.204,0.768 -0.534,1.446 -0.99,2.034 -0.444,0.576 -1.02,1.032 -1.728,1.368 -0.708,0.324 -1.554,0.486 -2.538,0.486 z M 191.424,13 V 4.612 l -3.276,6.246 h -1.386 L 183.486,4.612 V 13 h -2.484 V 0.22 h 2.664 l 3.78,7.272 3.816,-7.272 h 2.646 V 13 Z M 107.332,40 V 27.22 h 5.652 c 0.588,0 1.128,0.12 1.62,0.36 0.504,0.24 0.936,0.564 1.296,0.972 0.372,0.408 0.654,0.864 0.846,1.368 0.204,0.504 0.306,1.02 0.306,1.548 0,0.816 -0.21,1.566 -0.63,2.25 -0.408,0.684 -0.966,1.176 -1.674,1.476 L 117.664,40 h -2.736 L 112.3,35.716 h -2.484 V 40 Z m 2.484,-6.462 h 3.114 c 0.468,0 0.852,-0.198 1.152,-0.594 0.312,-0.408 0.468,-0.9 0.468,-1.476 0,-0.396 -0.084,-0.75 -0.252,-1.062 -0.168,-0.312 -0.384,-0.558 -0.648,-0.738 -0.252,-0.18 -0.528,-0.27 -0.828,-0.27 h -3.006 z m 20.161,4.284 V 40 h -8.874 V 27.22 h 8.712 v 2.178 h -6.228 v 3.078 h 5.382 v 2.016 h -5.382 v 3.33 z m 8.818,2.268 c -0.84,0 -1.626,-0.168 -2.358,-0.504 -0.732,-0.336 -1.38,-0.798 -1.944,-1.386 -0.552,-0.6 -0.984,-1.296 -1.296,-2.088 -0.312,-0.792 -0.468,-1.65 -0.468,-2.574 0,-0.876 0.156,-1.698 0.468,-2.466 0.312,-0.78 0.75,-1.464 1.314,-2.052 0.564,-0.588 1.224,-1.05 1.98,-1.386 0.756,-0.336 1.578,-0.504 2.466,-0.504 1.188,0 2.214,0.258 3.078,0.774 0.864,0.504 1.512,1.176 1.944,2.016 l -1.854,1.368 c -0.324,-0.624 -0.78,-1.104 -1.368,-1.44 -0.576,-0.348 -1.206,-0.522 -1.89,-0.522 -0.72,0 -1.356,0.198 -1.908,0.594 -0.54,0.396 -0.966,0.918 -1.278,1.566 -0.3,0.648 -0.45,1.356 -0.45,2.124 0,0.804 0.162,1.53 0.486,2.178 0.324,0.648 0.768,1.164 1.332,1.548 0.576,0.372 1.23,0.558 1.962,0.558 1.236,0 2.352,-0.582 3.348,-1.746 v -0.9 h -2.574 V 33.43 h 4.626 V 40 h -2.052 v -1.44 c -1.032,1.02 -2.22,1.53 -3.564,1.53 z M 148.328,40 V 27.22 h 2.484 V 40 Z m 12.404,0.09 c -0.936,0 -1.788,-0.18 -2.556,-0.54 -0.756,-0.36 -1.41,-0.846 -1.962,-1.458 -0.54,-0.624 -0.96,-1.32 -1.26,-2.088 -0.3,-0.78 -0.45,-1.578 -0.45,-2.394 0,-0.852 0.156,-1.662 0.468,-2.43 0.312,-0.78 0.75,-1.47 1.314,-2.07 0.564,-0.612 1.224,-1.092 1.98,-1.44 0.768,-0.36 1.608,-0.54 2.52,-0.54 0.924,0 1.764,0.186 2.52,0.558 0.768,0.372 1.422,0.87 1.962,1.494 0.552,0.624 0.972,1.326 1.26,2.106 0.3,0.768 0.45,1.554 0.45,2.358 0,0.84 -0.156,1.65 -0.468,2.43 -0.312,0.768 -0.75,1.458 -1.314,2.07 -0.552,0.6 -1.212,1.074 -1.98,1.422 -0.756,0.348 -1.584,0.522 -2.484,0.522 z m -3.708,-6.48 c 0,0.744 0.144,1.44 0.432,2.088 0.3,0.648 0.726,1.176 1.278,1.584 0.564,0.408 1.236,0.612 2.016,0.612 0.804,0 1.482,-0.21 2.034,-0.63 0.552,-0.42 0.972,-0.96 1.26,-1.62 0.288,-0.66 0.432,-1.338 0.432,-2.034 0,-0.744 -0.15,-1.44 -0.45,-2.088 -0.3,-0.648 -0.732,-1.17 -1.296,-1.566 -0.552,-0.408 -1.212,-0.612 -1.98,-0.612 -0.804,0 -1.482,0.21 -2.034,0.63 -0.552,0.42 -0.972,0.96 -1.26,1.62 -0.288,0.648 -0.432,1.32 -0.432,2.016 z m 16.144,-1.818 V 40 h -2.484 V 27.22 h 1.98 l 6.606,8.424 v -8.406 h 2.484 V 40 h -2.07 z m 18.462,8.298 c -1.02,0 -1.89,-0.168 -2.61,-0.504 -0.708,-0.348 -1.284,-0.822 -1.728,-1.422 -0.432,-0.6 -0.75,-1.278 -0.954,-2.034 -0.204,-0.768 -0.306,-1.566 -0.306,-2.394 V 27.22 h 2.484 v 6.516 c 0,0.708 0.096,1.38 0.288,2.016 0.192,0.636 0.516,1.152 0.972,1.548 0.456,0.396 1.068,0.594 1.836,0.594 0.792,0 1.416,-0.198 1.872,-0.594 0.456,-0.408 0.78,-0.93 0.972,-1.566 0.192,-0.636 0.288,-1.302 0.288,-1.998 V 27.22 h 2.466 v 6.516 c 0,0.876 -0.108,1.698 -0.324,2.466 -0.204,0.768 -0.534,1.446 -0.99,2.034 -0.444,0.576 -1.02,1.032 -1.728,1.368 -0.708,0.324 -1.554,0.486 -2.538,0.486 z m -74.002,23.616 c 0,0.72 -0.186,1.326 -0.558,1.818 -0.372,0.48 -0.876,0.846 -1.512,1.098 C 114.934,66.874 114.25,67 113.506,67 h -6.174 V 54.22 h 6.84 c 0.6,0 1.116,0.162 1.548,0.486 0.432,0.312 0.768,0.72 1.008,1.224 0.24,0.504 0.36,1.02 0.36,1.548 0,0.624 -0.156,1.212 -0.468,1.764 -0.312,0.54 -0.768,0.942 -1.368,1.206 0.732,0.216 1.308,0.606 1.728,1.17 0.432,0.564 0.648,1.26 0.648,2.088 z m -7.812,-7.362 v 3.222 h 3.312 c 0.408,0 0.762,-0.144 1.062,-0.432 0.3,-0.288 0.45,-0.684 0.45,-1.188 0,-0.48 -0.138,-0.864 -0.414,-1.152 -0.264,-0.3 -0.594,-0.45 -0.99,-0.45 z m 5.31,6.894 c 0,-0.468 -0.144,-0.87 -0.432,-1.206 -0.288,-0.336 -0.642,-0.504 -1.062,-0.504 h -3.816 v 3.366 h 3.69 c 0.456,0 0.84,-0.162 1.152,-0.486 0.312,-0.324 0.468,-0.714 0.468,-1.17 z m 11.694,3.852 c -0.936,0 -1.788,-0.18 -2.556,-0.54 -0.756,-0.36 -1.41,-0.846 -1.962,-1.458 -0.54,-0.624 -0.96,-1.32 -1.26,-2.088 -0.3,-0.78 -0.45,-1.578 -0.45,-2.394 0,-0.852 0.156,-1.662 0.468,-2.43 0.312,-0.78 0.75,-1.47 1.314,-2.07 0.564,-0.612 1.224,-1.092 1.98,-1.44 0.768,-0.36 1.608,-0.54 2.52,-0.54 0.924,0 1.764,0.186 2.52,0.558 0.768,0.372 1.422,0.87 1.962,1.494 0.552,0.624 0.972,1.326 1.26,2.106 0.3,0.768 0.45,1.554 0.45,2.358 0,0.84 -0.156,1.65 -0.468,2.43 -0.312,0.768 -0.75,1.458 -1.314,2.07 -0.552,0.6 -1.212,1.074 -1.98,1.422 -0.756,0.348 -1.584,0.522 -2.484,0.522 z m -3.708,-6.48 c 0,0.744 0.144,1.44 0.432,2.088 0.3,0.648 0.726,1.176 1.278,1.584 0.564,0.408 1.236,0.612 2.016,0.612 0.804,0 1.482,-0.21 2.034,-0.63 0.552,-0.42 0.972,-0.96 1.26,-1.62 0.288,-0.66 0.432,-1.338 0.432,-2.034 0,-0.744 -0.15,-1.44 -0.45,-2.088 -0.3,-0.648 -0.732,-1.17 -1.296,-1.566 -0.552,-0.408 -1.212,-0.612 -1.98,-0.612 -0.804,0 -1.482,0.21 -2.034,0.63 -0.552,0.42 -0.972,0.96 -1.26,1.62 -0.288,0.648 -0.432,1.32 -0.432,2.016 z m 21.221,-3.042 c -0.108,-0.12 -0.336,-0.276 -0.684,-0.468 -0.348,-0.204 -0.768,-0.384 -1.26,-0.54 -0.48,-0.168 -0.978,-0.252 -1.494,-0.252 -1.356,0 -2.034,0.48 -2.034,1.44 0,0.348 0.108,0.624 0.324,0.828 0.216,0.204 0.54,0.378 0.972,0.522 0.432,0.144 0.972,0.3 1.62,0.468 0.84,0.216 1.566,0.468 2.178,0.756 0.624,0.288 1.098,0.672 1.422,1.152 0.336,0.468 0.504,1.092 0.504,1.872 0,0.912 -0.222,1.65 -0.666,2.214 -0.432,0.552 -1.008,0.954 -1.728,1.206 -0.72,0.252 -1.5,0.378 -2.34,0.378 -0.96,0 -1.914,-0.144 -2.862,-0.432 -0.936,-0.3 -1.77,-0.708 -2.502,-1.224 l 1.098,-2.142 c 0.108,0.108 0.3,0.252 0.576,0.432 0.276,0.168 0.612,0.342 1.008,0.522 0.396,0.168 0.828,0.312 1.296,0.432 0.468,0.12 0.942,0.18 1.422,0.18 1.368,0 2.052,-0.438 2.052,-1.314 0,-0.372 -0.138,-0.672 -0.414,-0.9 -0.276,-0.228 -0.666,-0.42 -1.17,-0.576 -0.492,-0.156 -1.068,-0.33 -1.728,-0.522 -0.816,-0.228 -1.494,-0.48 -2.034,-0.756 -0.528,-0.288 -0.924,-0.642 -1.188,-1.062 -0.264,-0.432 -0.396,-0.978 -0.396,-1.638 0,-0.876 0.204,-1.608 0.612,-2.196 0.42,-0.6 0.984,-1.05 1.692,-1.35 0.708,-0.312 1.494,-0.468 2.358,-0.468 0.888,0 1.716,0.144 2.484,0.432 0.768,0.288 1.428,0.618 1.98,0.99 z M 149.558,67 V 54.238 h 2.484 v 6.066 l 5.364,-6.084 h 2.736 l -4.896,5.67 5.202,7.11 h -2.808 l -3.978,-5.508 -1.62,1.692 V 67 Z m 18.557,0.09 c -0.936,0 -1.788,-0.18 -2.556,-0.54 -0.756,-0.36 -1.41,-0.846 -1.962,-1.458 -0.54,-0.624 -0.96,-1.32 -1.26,-2.088 -0.3,-0.78 -0.45,-1.578 -0.45,-2.394 0,-0.852 0.156,-1.662 0.468,-2.43 0.312,-0.78 0.75,-1.47 1.314,-2.07 0.564,-0.612 1.224,-1.092 1.98,-1.44 0.768,-0.36 1.608,-0.54 2.52,-0.54 0.924,0 1.764,0.186 2.52,0.558 0.768,0.372 1.422,0.87 1.962,1.494 0.552,0.624 0.972,1.326 1.26,2.106 0.3,0.768 0.45,1.554 0.45,2.358 0,0.84 -0.156,1.65 -0.468,2.43 -0.312,0.768 -0.75,1.458 -1.314,2.07 -0.552,0.6 -1.212,1.074 -1.98,1.422 -0.756,0.348 -1.584,0.522 -2.484,0.522 z m -3.708,-6.48 c 0,0.744 0.144,1.44 0.432,2.088 0.3,0.648 0.726,1.176 1.278,1.584 0.564,0.408 1.236,0.612 2.016,0.612 0.804,0 1.482,-0.21 2.034,-0.63 0.552,-0.42 0.972,-0.96 1.26,-1.62 0.288,-0.66 0.432,-1.338 0.432,-2.034 0,-0.744 -0.15,-1.44 -0.45,-2.088 -0.3,-0.648 -0.732,-1.17 -1.296,-1.566 -0.552,-0.408 -1.212,-0.612 -1.98,-0.612 -0.804,0 -1.482,0.21 -2.034,0.63 -0.552,0.42 -0.972,0.96 -1.26,1.62 -0.288,0.648 -0.432,1.32 -0.432,2.016 z m 14.481,-6.39 3.456,9.828 3.42,-9.828 h 2.61 L 183.532,67 h -2.394 l -4.86,-12.78 z M 191.538,67 V 54.22 h 2.484 V 67 Z m 6.177,-6.48 c 0,-0.78 0.138,-1.548 0.414,-2.304 0.288,-0.756 0.702,-1.44 1.242,-2.052 0.54,-0.612 1.2,-1.098 1.98,-1.458 0.78,-0.372 1.668,-0.558 2.664,-0.558 1.164,0 2.178,0.258 3.042,0.774 0.864,0.516 1.506,1.188 1.926,2.016 l -1.908,1.314 c -0.216,-0.48 -0.498,-0.858 -0.846,-1.134 -0.348,-0.276 -0.726,-0.474 -1.134,-0.594 -0.396,-0.12 -0.78,-0.18 -1.152,-0.18 -0.624,0 -1.17,0.126 -1.638,0.378 -0.456,0.252 -0.84,0.582 -1.152,0.99 -0.312,0.408 -0.546,0.864 -0.702,1.368 -0.144,0.504 -0.216,1.008 -0.216,1.512 0,0.756 0.156,1.464 0.468,2.124 0.312,0.648 0.75,1.176 1.314,1.584 0.564,0.408 1.218,0.612 1.962,0.612 0.384,0 0.78,-0.066 1.188,-0.198 0.42,-0.132 0.804,-0.342 1.152,-0.63 0.348,-0.288 0.618,-0.66 0.81,-1.116 l 2.034,1.17 c -0.264,0.636 -0.678,1.176 -1.242,1.62 -0.564,0.432 -1.2,0.768 -1.908,1.008 -0.708,0.228 -1.41,0.342 -2.106,0.342 -0.912,0 -1.746,-0.186 -2.502,-0.558 -0.744,-0.384 -1.392,-0.888 -1.944,-1.512 -0.552,-0.636 -0.984,-1.344 -1.296,-2.124 -0.3,-0.792 -0.45,-1.59 -0.45,-2.394 z M 212.628,67 V 54.238 h 2.484 v 6.066 l 5.364,-6.084 h 2.736 l -4.896,5.67 5.202,7.11 h -2.808 l -3.978,-5.508 -1.62,1.692 V 67 Z m 17.315,-12.78 h 2.52 L 237.161,67 h -2.556 l -1.188,-3.186 h -4.464 L 227.783,67 h -2.556 z m 3.024,7.848 -1.764,-5.274 -1.836,5.274 z"
     fill="#efe6e0"
     id="path12" />
  <defs
     id="defs17">
    <clipPath
       id="clip0">
      <rect
         width="85"
         height="66"
         fill="#ffffff"
         transform="translate(0,4)"
         id="rect14"
         x="0"
         y="0" />
    </clipPath>
  </defs>
</svg>
