<?xml version="1.0" encoding="UTF-8" standalone="no"?>
<svg
   width="84.94886"
   height="67.143997"
   viewBox="0 0 84.94886 67.143997"
   fill="none"
   version="1.1"
   id="svg220"
   sodipodi:docname="muzeum_boskovice_logo.svg"
   inkscape:version="1.2.2 (732a01da63, 2022-12-09)"
   xmlns:inkscape="http://www.inkscape.org/namespaces/inkscape"
   xmlns:sodipodi="http://sodipodi.sourceforge.net/DTD/sodipodi-0.dtd"
   xmlns="http://www.w3.org/2000/svg"
   xmlns:svg="http://www.w3.org/2000/svg">
  <sodipodi:namedview
     id="namedview222"
     pagecolor="#ffffff"
     bordercolor="#000000"
     borderopacity="0.25"
     inkscape:showpageshadow="2"
     inkscape:pageopacity="0.0"
     inkscape:pagecheckerboard="0"
     inkscape:deskcolor="#d1d1d1"
     showgrid="false"
     inkscape:zoom="3.8351648"
     inkscape:cx="136.5"
     inkscape:cy="32.202006"
     inkscape:window-width="1920"
     inkscape:window-height="1001"
     inkscape:window-x="-9"
     inkscape:window-y="-9"
     inkscape:window-maximized="1"
     inkscape:current-layer="svg220" />
  <g
     clip-path="url(#clip0)"
     id="g211"
     transform="translate(0,-4)">
    <path
       d="m 39.126,61.8254 c 0.2045,-0.7371 0.3408,-1.4071 0.4771,-2.1442 0.2727,-0.9381 0.4772,-1.9431 0.7498,-2.8812 0.0682,-0.134 0.0682,-0.335 0.0682,-0.469 -0.0682,-0.8711 -0.2045,-1.7422 -0.409,-2.6132 -0.0681,-0.134 -0.0681,-0.3351 -0.1363,-0.4691 -0.2727,-0.469 -0.4771,-0.938 -0.7498,-1.4741 -0.4771,-0.804 -0.8861,-1.6081 -1.4314,-2.4122 -1.0225,-1.4741 -2.0449,-2.9482 -2.8629,-4.5563 -0.0682,-0.067 -0.1363,-0.201 -0.2045,-0.268 -0.0682,0 -0.0682,0 -0.0682,0.067 -5.6575,5.0924 -11.3833,10.1847 -17.0409,15.2771 l -0.0681,0.067 c 0,0 -0.0682,0 -0.0682,0.067 l -0.0682,0.067 c 0,0 0,0 -0.0681,0 0,0 0,0 -0.0682,0 1.7041,-12.3289 3.4764,-24.6578 5.1805,-36.9868 0,-0.134 0.0681,-0.335 0.0681,-0.469 0,0 0,0 0.0682,0 0.9543,5.2934 1.9086,10.5868 2.931,15.9472 0.3408,-1.7421 0.6135,-3.4842 0.8861,-5.1594 0.2727,-1.7421 0.5453,-3.4842 0.818,-5.1594 0.2727,-1.7421 0.5453,-3.4842 0.818,-5.1594 0.2726,-1.7421 0.5453,-3.4172 0.8179,-5.1593 0.0682,0 0.0682,0 0.1364,0 0.8861,5.0923 1.8404,10.1847 2.7265,15.2771 0.0682,-0.134 0.1363,-0.268 0.1363,-0.402 0.2045,-1.4741 0.4772,-2.9482 0.6817,-4.3553 0.4089,-2.4792 0.8179,-5.0254 1.2269,-7.5046 0.0682,-0.6031 0.2045,-1.2061 0.2727,-1.8092 -0.0682,-0.067 -0.1364,-0.067 -0.2045,-0.134 -0.6817,-0.603 -1.2951,-1.2061 -1.9086,-1.7421 -0.5453,-0.469 -1.1588,-0.9381 -1.7723,-1.4071 -0.3408,-0.268 -0.6134,-0.603 -0.7498,-1.0721 -0.2726,-0.737 -0.5453,-1.5411 -0.7498,-2.2782 -0.0681,-0.268 -0.2045,-0.536 -0.3408,-0.804 C 27.879,11.0355 27.6064,10.2985 27.1974,9.69543 26.8566,9.09239 26.5157,8.48934 26.1068,7.9533 25.2888,6.74721 24.4708,5.54112 23.6529,4.33503 c 0,0 0,-0.06701 -0.0682,-0.06701 C 20.7218,4 17.7226,4 14.7916,4 c 0.3408,0.53604 0.6816,1.13909 1.0224,1.67513 0.6135,1.00507 1.227,2.01015 1.8405,3.01523 0.2045,0.33502 0.4089,0.60304 0.6816,0.87106 1.0906,1.47408 1.3633,3.08228 0.8861,4.82438 -0.409,1.5411 -1.2269,2.8812 -2.3175,4.0873 -1.2951,1.4071 -2.7947,2.4792 -4.4307,3.4843 -1.3632,0.871 -2.72651,1.6751 -4.08978,2.4121 -1.09062,0.6031 -2.11307,1.2731 -2.9992,2.0772 -0.95429,0.8041 -1.84042,1.7421 -2.65838,2.7472 -0.54531,0.6701 -1.02245,1.3401 -1.43144,2.0772 -0.408977,0.804 -0.545304,1.6081 -0.817958,2.4792 -0.272655,0.871 -0.340818,1.8091 -0.4771452954,2.7472 0,0.067 -0.0681636046,0.134 -0.1363267046,0.268 0,0.603 0,1.2061 0,1.8761 0.0681631,0.067 0.0681631,0.201 0.1363267046,0.268 C 0.0682603,39.6467 0.136424,40.3838 0.272751,41.0538 c 0.204491,1.2061 0.545309,2.4122 1.090619,3.5513 0.68163,1.4741 1.63592,2.8142 2.59021,4.1543 1.02246,1.2731 2.04491,2.5462 3.13553,3.8193 1.43143,1.6751 3.06739,3.2162 4.83959,4.5563 0.8862,0.6701 1.8404,1.4071 2.7947,2.0772 1.227,0.871 2.5221,1.6751 3.8854,2.4122 1.4996,0.871 2.931,1.7421 4.2943,2.8142 1.1587,0.938 2.2494,1.9431 2.9992,3.2832 0.3408,0.6701 0.7498,1.3401 1.0906,1.9432 0.1363,0.268 0.3408,0.402 0.6816,0.402 2.6584,0 5.2486,0 7.907,0 0.1363,0 0.3408,0 0.4771,0 0.2045,-0.8041 0.4772,-1.6081 0.6817,-2.4122 0.1363,-0.536 0.2726,-1.0721 0.4771,-1.6081 0.4772,-1.0721 0.9543,-2.1442 1.4315,-3.2162 0.2726,-0.3351 0.4089,-0.6701 0.4771,-1.0051 z"
       fill="#efe6e0"
       id="path203" />
    <path
       d="m 36.8767,19.3442 c 0.0682,0.402 0.0682,0.737 0.0682,1.0051 0,0.201 0.1363,0.402 0.3408,0.536 0.409,0.268 0.818,0.536 1.2269,0.8041 0.0682,0.067 0.1364,0.067 0.2727,0.134 0.0682,-0.2681 0.0682,-0.4691 0.1363,-0.6701 0.0682,-0.201 0,-0.402 -0.2045,-0.536 -0.5453,-0.4021 -1.0906,-0.8041 -1.6359,-1.2061 -0.0682,0 -0.0682,0 -0.2045,-0.067 z"
       fill="#efe6e0"
       id="path205" />
    <path
       d="m 84.9318,35.8944 c 0,-1.6751 -0.6135,-3.0822 -1.5677,-4.4893 -0.8862,-1.2731 -1.9768,-2.4122 -3.0674,-3.4843 -1.4314,-1.2731 -2.9992,-2.4792 -4.567,-3.5513 -0.1363,-0.067 -0.2045,-0.134 -0.4089,-0.067 -1.3633,0.2011 -2.6584,0.3351 -4.0217,0.5361 -0.4771,0.067 -0.9543,0.067 -1.3633,0.067 -0.5453,0 -1.0906,0.067 -1.6359,0.067 -0.1363,0 -0.2727,0 -0.409,-0.067 -0.6135,-0.268 -1.2269,-0.5361 -1.8404,-0.8041 -1.0225,-0.402 -1.7723,-1.1391 -2.6584,-1.7421 -0.7498,-0.6031 -1.4314,-1.2061 -2.1812,-1.7421 -0.8861,-0.6701 -1.7723,-1.3401 -2.7266,-1.8762 -1.0906,-0.603 -2.0449,-1.4071 -2.931,-2.2112 -1.2951,-1.206 -2.5902,-2.3451 -3.8172,-3.5512 -0.8179,-0.7371 -1.4996,-1.4741 -2.0449,-2.4122 -0.2726,-0.536 -0.4771,-1.13909 -0.4089,-1.74213 0.1363,-1.40711 0.2044,-2.81422 0.3408,-4.22132 0,-0.13401 0.0681,-0.20102 0.0681,-0.40203 V 4 C 41.5116,4 33.332,4 25.1523,4 c 0.409,0.60305 0.818,1.20609 1.2952,1.74213 0.4771,0.60305 0.8179,1.2731 1.1587,1.94315 0.6817,1.2731 1.3633,2.54622 1.9768,3.81932 0.2726,0.536 0.4771,1.1391 0.6134,1.7421 0.1364,0.6701 0.409,1.1391 1.0225,1.5411 0.6816,0.4691 1.2951,1.0051 1.9086,1.5411 0.409,0.4021 0.8179,0.8041 1.2269,1.2061 0.3408,-1.8761 0.6135,-3.8193 0.9543,-5.6954 0,-0.134 0.0682,-0.201 0.0682,-0.335 h 0.0681 c 0.818,5.3604 1.636,10.6538 2.4539,16.0142 h 0.0682 c 1.3633,-7.0356 2.7265,-14.0711 4.0898,-21.03961 0.0682,0 0.0682,0 0.1363,0 0.5454,3.61831 1.1588,7.23651 1.7041,10.85481 0.5453,3.6183 1.1588,7.1696 1.7041,10.7878 h 0.0682 c 0.9543,-5.4944 1.9767,-11.0558 2.931,-16.5502 0.0682,0 0.0682,0 0.1363,0 0.2045,1.1391 0.3409,2.3452 0.4772,3.4842 0.2045,1.2061 0.3408,2.3452 0.4771,3.5513 0.1364,1.1391 0.3409,2.3452 0.4772,3.4843 0.1363,1.1391 0.3408,2.3451 0.4771,3.4842 0.1364,1.2061 0.3408,2.3452 0.4772,3.5513 0.1363,1.1391 0.3408,2.3452 0.5453,3.4843 1.0224,-4.8914 1.9086,-9.7158 2.8629,-14.6741 0.1363,0.268 0.7498,3.9533 1.2269,6.9015 0.3408,2.2782 0.6816,4.5563 1.0906,6.8345 0.3408,2.2782 0.6817,4.5563 1.0906,6.8345 0.0682,-0.134 0.0682,-0.268 0.1364,-0.402 0.2044,-1.2061 0.4089,-2.3452 0.6134,-3.5513 0.409,-2.2112 0.818,-4.4223 1.1588,-6.6335 0.2727,-1.5411 0.5453,-3.0822 0.818,-4.5563 0,-0.067 0.0681,-0.201 0.0681,-0.2681 h 0.0682 c 1.8404,12.53 3.6808,25.0599 5.4531,37.5229 0,0 0,0 -0.0682,0 -8.1796,-7.2366 -16.4274,-14.4731 -24.7434,-21.7097 -2.0449,1.6752 -4.0898,3.3503 -6.0665,5.0254 0.4771,0.6701 0.8861,1.2731 1.2951,1.9432 1.6359,2.4122 3.1355,4.8243 4.567,7.3035 0.0681,0.134 0.1363,0.335 0.2044,0.5361 0.1364,0.804 0.2727,1.5411 0.2727,2.3451 0,0.6701 -0.0682,1.3401 -0.2727,2.0102 -0.3408,1.0051 -0.6134,2.0772 -0.8861,3.0822 -0.2045,0.8041 -0.3408,1.5411 -0.6816,2.2782 -0.8861,2.0102 -1.6359,4.0203 -2.2494,6.1645 -0.0682,0.134 -0.0682,0.268 -0.1363,0.469 0.2044,0 0.3408,0 0.4771,0 5.9984,0 11.9286,0 17.927,0 0.0682,0 0.1364,0 0.2045,0 0.2045,0 0.3408,-0.067 0.409,-0.268 0.2727,-0.4691 0.5453,-0.8711 0.818,-1.3401 0.7498,-1.0721 1.704,-2.0102 2.7265,-2.8142 1.5678,-1.3401 3.34,-2.4792 5.0441,-3.6183 1.4314,-0.9381 2.8629,-1.8761 4.2262,-2.8812 1.6359,-1.1391 3.0673,-2.4122 4.4988,-3.7523 1.5677,-1.4741 3.0673,-3.0822 4.4987,-4.7574 1.0907,-1.3401 2.1813,-2.6802 3.1356,-4.1543 1.0906,-1.6751 1.9086,-3.4172 2.6584,-5.2264 0.3408,-0.804 0.6816,-1.6751 0.6816,-2.5462 0,-0.067 0.0682,-0.067 0.0682,-0.134 0,-0.804 0,-1.6081 0,-2.3452 0.1363,-0.201 0.0681,-0.268 0.0681,-0.335 z"
       fill="#efe6e0"
       id="path207" />
    <path
       d="M 68.3681,7.9533 C 69.0497,6.88122 69.6632,5.74213 70.3448,4.67005 70.4812,4.46904 70.5493,4.20102 70.6175,4 64.0738,4 57.5301,4 51.0545,4 v 0.13401 c -0.0681,0.46904 -0.1363,0.87107 -0.1363,1.2731 -0.1363,1.00507 -0.2726,1.94314 -0.409,2.94822 -0.0681,0.67005 0.0682,1.2731 0.409,1.87617 0.3408,0.67 0.818,1.2061 1.3633,1.7421 1.3633,1.2731 2.7265,2.5462 4.0898,3.7523 0.6135,0.536 1.1588,1.0721 1.7723,1.6081 0.2044,0.201 0.4771,0.335 0.6816,0.469 0.9543,0.5361 1.9086,1.1391 2.7947,1.8092 0.4771,0.335 0.8861,0.67 1.2951,1.0051 1.0225,0.804 2.1131,1.5411 3.2037,2.2781 0.409,0.2681 0.9543,0.4021 1.4314,0.6701 0.5453,0.268 1.1588,0.402 1.7723,0.335 1.4996,-0.201 3.0673,-0.335 4.5669,-0.469 0.0682,0 0.0682,0 0.1364,-0.067 -0.0682,-0.067 -0.1364,-0.134 -0.2045,-0.201 -1.227,-0.8041 -2.4539,-1.6752 -3.6127,-2.6803 -1.2951,-1.072 -2.4539,-2.2781 -3.2718,-3.8192 -0.9543,-1.7422 -1.0907,-3.4843 -0.409,-5.2934 0.4771,-1.2061 1.1588,-2.27821 1.8404,-3.4173 z"
       fill="#efe6e0"
       id="path209" />
  </g>
  <defs
     id="defs218">
    <clipPath
       id="clip0">
      <rect
         width="85"
         height="66"
         fill="#ffffff"
         transform="translate(0,4)"
         id="rect215"
         x="0"
         y="0" />
    </clipPath>
  </defs>
</svg>
